<?xml version="1.0" standalone="no"?>
<!DOCTYPE svg PUBLIC "-//W3C//DTD SVG 20010904//EN"
 "http://www.w3.org/TR/2001/REC-SVG-20010904/DTD/svg10.dtd">
<svg version="1.0" xmlns="http://www.w3.org/2000/svg"
 width="256.000000pt" height="256.000000pt" viewBox="0 0 256.000000 256.000000"
 preserveAspectRatio="xMidYMid meet">
<metadata>
Created by potrace 1.14, written by Peter Selinger 2001-2017
</metadata>
<g transform="translate(0.000000,256.000000) scale(0.100000,-0.100000)"
fill="#000000" stroke="none">
<path d="M1109 2549 c-498 -73 -901 -414 -1049 -889 -45 -143 -58 -236 -55
-400 3 -208 35 -345 120 -526 171 -365 511 -631 907 -710 93 -18 339 -27 408
-14 25 5 65 11 90 15 66 9 237 68 322 111 351 177 597 496 680 884 26 121 32
350 12 465 -71 403 -320 747 -674 929 -96 49 -228 98 -310 115 -30 6 -68 13
-85 17 -50 10 -306 12 -366 3z m119 -679 c48 -25 62 -38 94 -80 101 -138 38
-342 -125 -405 -65 -25 -160 -17 -221 19 -92 54 -144 156 -133 262 19 184 221
291 385 204z m542 -225 c19 -20 23 -35 22 -80 l0 -55 56 0 c65 -1 89 -14 101
-57 17 -58 -21 -92 -100 -93 l-57 0 0 -37 c-1 -75 -2 -83 -24 -103 -30 -27
-73 -26 -103 5 -20 20 -25 34 -25 78 l0 55 -65 4 c-49 3 -68 9 -80 23 -22 30
-18 73 10 100 20 21 34 25 80 25 l55 0 0 55 c0 46 4 60 25 80 32 33 74 33 105
0z m-438 -362 c183 -54 281 -201 277 -413 -2 -94 -10 -124 -42 -158 -50 -54
-52 -54 -452 -55 -204 0 -382 4 -395 8 -40 12 -79 44 -97 78 -18 35 -24 160
-11 240 22 145 130 263 278 303 69 19 377 17 442 -3z"/>
</g>
</svg>
